<svg xmlns="http://www.w3.org/2000/svg" width="512" height="512" viewBox="0 0 512 512"><defs><radialGradient id="h" cx="50%" cy="50%" r="50%">
    <stop offset="0%" stop-color="#FF6B6B" stop-opacity="0.35"></stop>
    <stop offset="55%" stop-color="#FF6B6B" stop-opacity="0.13999999999999999"></stop>
    <stop offset="100%" stop-color="#FF6B6B" stop-opacity="0"></stop>
  </radialGradient></defs>
  <circle cx="256" cy="272" r="240" fill="url(#h)"></circle>
  <path d="M256 150 C300 96 250 70 218 74 C244 92 240 128 256 150Z" fill="#4CAF50" stroke="#1A1A2E" stroke-width="18" stroke-linejoin="round"></path>
  <rect x="247" y="96" width="20" height="70" rx="10" fill="#8B4513" stroke="#1A1A2E" stroke-width="16"></rect>
  <path d="M256 168&#xA;    C196 104 118 128 118 226&#xA;    C118 330 186 430 256 430&#xA;    C326 430 394 330 394 226&#xA;    C394 128 316 104 256 168Z" fill="#FF3B3B" stroke="#1A1A2E" stroke-width="26" stroke-linejoin="round"></path>
  <path d="M180 210 C160 250 162 300 188 340 C150 300 150 240 180 210Z" fill="#FF6B6B" opacity="0.9"></path>
  <ellipse cx="196" cy="220" rx="34" ry="52" fill="#fff" opacity="0.35" transform="rotate(-25 196 220)"></ellipse>
</svg>