<svg xmlns="http://www.w3.org/2000/svg" width="512" height="512" viewBox="0 0 512 512"><defs><radialGradient id="h" cx="50%" cy="50%" r="50%">
    <stop offset="0%" stop-color="#FF9800" stop-opacity="0.4"></stop>
    <stop offset="55%" stop-color="#FF9800" stop-opacity="0.16000000000000003"></stop>
    <stop offset="100%" stop-color="#FF9800" stop-opacity="0"></stop>
  </radialGradient><radialGradient id="g" cx="50%" cy="50%" r="50%"><stop offset="0%" stop-color="#fff"></stop><stop offset="45%" stop-color="#FF9800"></stop><stop offset="100%" stop-color="#FF3B3B"></stop></radialGradient></defs>
  <circle cx="256" cy="256" r="248" fill="url(#h)"></circle>
  <path d="M256.0 20.0 L292.7 167.3 L422.9 89.1 L344.7 219.3 L492.0 256.0 L344.7 292.7 L422.9 422.9 L292.7 344.7 L256.0 492.0 L219.3 344.7 L89.1 422.9 L167.3 292.7 L20.0 256.0 L167.3 219.3 L89.1 89.1 L219.3 167.3 Z" fill="url(#g)" stroke="#1A1A2E" stroke-width="18" stroke-linejoin="round"></path>
  <path d="M256.0 106.0 L279.0 200.6 L362.1 149.9 L311.4 233.0 L406.0 256.0 L311.4 279.0 L362.1 362.1 L279.0 311.4 L256.0 406.0 L233.0 311.4 L149.9 362.1 L200.6 279.0 L106.0 256.0 L200.6 233.0 L149.9 149.9 L233.0 200.6 Z" fill="#fff" opacity="0.95"></path>
</svg>