<svg xmlns="http://www.w3.org/2000/svg" width="512" height="512" viewBox="0 0 512 512"><defs><radialGradient id="h" cx="50%" cy="50%" r="50%">
    <stop offset="0%" stop-color="#00E5FF" stop-opacity="0.45"></stop>
    <stop offset="55%" stop-color="#00E5FF" stop-opacity="0.18000000000000002"></stop>
    <stop offset="100%" stop-color="#00E5FF" stop-opacity="0"></stop>
  </radialGradient></defs>
    <circle cx="256" cy="256" r="248" fill="url(#h)"></circle>
    <circle cx="256" cy="256" r="188" fill="none" stroke="#FFD700" stroke-width="14" opacity="0.9"></circle>
    <circle cx="256" cy="256" r="172" fill="#16213E" stroke="#1A1A2E" stroke-width="26"></circle>
    <path d="M256 96 A160 160 0 0 1 402 200" fill="none" stroke="#fff" stroke-width="10" stroke-linecap="round" opacity="0.28"></path>
    
  <path d="M256 120 C300 150 340 156 372 156 C372 260 344 340 256 392 C168 340 140 260 140 156 C172 156 212 150 256 120Z" fill="#00E5FF" stroke="#1A1A2E" stroke-width="22" stroke-linejoin="round"></path>
  <path d="M256 120 C300 150 340 156 372 156 C372 260 344 340 256 392 C168 340 140 260 140 156 C172 156 212 150 256 120Z" fill="none" stroke="#FFD700" stroke-width="12"></path>
  <path d="M182 250 L238 300 L332 196" fill="none" stroke="#fff" stroke-width="30" stroke-linecap="round" stroke-linejoin="round"></path>

  </svg>